<svg xmlns="http://www.w3.org/2000/svg" fill="none" viewBox="0 0 600 600"><path fill="#00ACD7" d="m342.8 203.5 1.3.9a92 92 0 0 1 34 41.2q2.4 3.7-3 5l-6 1.5c-13.4 3.4-24 6.3-37.2 9.8l-7.6 2c-2.7.6-3.5.3-6.3-3l-.5-.4a40 40 0 0 0-12.6-10.6l-1-.5a51 51 0 0 0-53 4.3 62 62 0 0 0-29.8 55.6 46 46 0 0 0 39.5 45.8 54 54 0 0 0 49.6-19.3c2.7-3.2 5-6.7 8-10.8h-56.5c-6 0-7.5-3.8-5.5-8.7l1-2.4c3.8-8.8 9.6-21.3 13.4-28.5l.8-1.5c1-1.8 3-4.2 7-4.2h94q6.3-20 20.2-38c21.3-28 47-42.6 81.8-48.7 29.8-5.3 57.9-2.4 83.3 14.9a91 91 0 0 1 41.2 65.1c5 39.5-6.5 71.6-33.6 99a134 134 0 0 1-70.1 37.5c-8 1.4-15.8 1.7-23.4 2.6a110 110 0 0 1-71.3-25.7 92 92 0 0 1-29.2-45.5 123 123 0 0 1-12.3 19.8c-21 27.7-48.5 45-83.2 49.6a104 104 0 0 1-78.6-19.3 92 92 0 0 1-37.1-64.8 115 115 0 0 1 24.8-85.6 130 130 0 0 1 81.8-50.5c27-5 52.8-2 76.1 13.4m139 41.9-1 .2a64 64 0 0 0-51 50.8 48 48 0 0 0 26.8 55.2c16 7 32.1 6.1 47.6-1.7a64 64 0 0 0 37.1-55.8c-.3-3.8-.3-6.8-.9-9.7a48 48 0 0 0-58.6-39m-345.4 53.3c1.2 0 1.8 1 1.8 2l-.6 7c0 1.3-1.2 2.1-2 2.1l-63.7-.3q-1.8-.2-1-1.7l4.2-7.3c.6-.9 1.7-1.8 2.9-1.8zM143 272q1.7.2 1.4 1.7l-2.3 7c-.3 1.2-1.5 1.8-2.7 1.8l-138.1.3q-1.8 0-1-1.5l6.2-7.9c.6-.9 2-1.4 3.2-1.4zm15.1-27c1.2 0 1.5 1 1 1.8l-5 7.6a4 4 0 0 1-3 1.8l-105.7-.3q-1.8 0-.9-1.5l6.1-7.9c.6-.8 2-1.4 3.3-1.4z"/></svg>