<svg xmlns="http://www.w3.org/2000/svg" fill="none" viewBox="0 0 600 600"><g clip-path="url(#devicon-linux-tux-22-a)"><g filter="url(#devicon-linux-tux-23-b)"><path fill="#000" fill-opacity=".2" d="M551.9 532.5C551.9 569.7 439 600 300 600S48.1 569.9 48.1 532.5C48.1 495.3 161 465 300 465s251.7 30.3 251.9 67.5"/></g><path fill="#000" d="M162 460c-24.3-35.1-29-149.2 27.8-219.5 28.2-33.6 35.4-57 37.6-88.7C229 115.8 202 8.5 303.5.5c103-8.3 97.2 93.2 96.6 147-.3 45.2 33.3 71 56.5 106.4 42.7 65 39.2 176.7-8 237.3-59.9 75.7-111 42.9-145 45.6-63.8 3.8-66 37.6-141.5-76.9"/><path fill="url(#devicon-linux-tux-24-c)" d="M410.4 260.6c17.7 16.3 63.5 89.3-9 135-25.6 15.9 22.8 76.5 46 47.2 41.1-52.7 15-137-9.9-167-16.5-21.3-42-29.6-27.1-15.2"/><path fill="#000" stroke="#000" d="M405.5 250.8c29 23.6 82 106.2 4.7 160.1-25.4 16.7 22.4 69.7 49.4 42.7 93.4-94-2.4-202-35.4-239.2-29.6-32.5-55.7 7.4-18.7 36.4Z"/><path fill="url(#devicon-linux-tux-25-d)" d="M363.6 51.8c-1 27-30.7 50.4-66.4 52.6-35.6 2.1-63.5-18.3-62.5-45.3S265.4 8.7 301 6.6c35.6-2 63.5 18.3 62.6 45.2"/><path fill="url(#devicon-linux-tux-26-e)" d="M278.4 116c1 17.5-7.3 32.2-18.7 32.8s-21.5-13-22.5-30.5 7.3-32.2 18.7-32.8 21.5 13 22.5 30.5"/><path fill="url(#devicon-linux-tux-27-f)" d="M299 117.3c.4 20.3 13.6 36.4 29.3 36s28.2-17 27.8-37.5c-.4-20.3-13.6-36.4-29.3-36S298.4 97 299 117.3"/><path fill="#000" d="M312 121.9c-.2 11.2 5.3 20.2 12.6 20.2 7 0 13.2-9 13.4-20 .2-11.2-5.3-20.3-12.6-20.3s-13.2 9-13.4 20m-45.4.2c1 9.3-2.6 17.2-7.7 18-5.1.6-10-6.3-11-15.6-1-9.2 2.5-17 7.6-17.9 5.1-.6 10 6.3 11 15.6"/><path fill="url(#devicon-linux-tux-28-g)" d="M315 115.6c-.6 6.3 2.3 11.4 6.4 11.8s8.1-4.5 8.7-10.6c.6-6.3-2.4-11.5-6.5-11.8s-8 4.5-8.6 10.6"/><path fill="url(#devicon-linux-tux-29-h)" d="M262.2 117.2c.6 5-1.6 9.6-4.7 10s-6.1-3.6-6.7-8.9c-.6-5 1.6-9.6 4.7-10 3.2-.4 6.1 3.7 6.7 8.9"/><path fill="url(#devicon-linux-tux-30-i)" d="M200.2 310.4c14-31.7 43.7-87.4 44.3-130.5 0-34.2 102.5-42.5 110.8-8.2a569 569 0 0 0 42.5 110.1c13.4 24.6 52.1 103.1 10.8 171.6-37.2 60.6-150 108.6-210.1-8.2-20.5-40.6-16.8-90.8 1.7-134.8"/><path fill="url(#devicon-linux-tux-31-j)" d="M187.7 286.8c-12 22.6-36.8 82 23.8 114.5 65 34.6 64.9 105.6-13.4 71.8-71.6-30.5-40-154-19.9-183.6 13-20.6 32.7-46 9.5-2.7"/><path fill="#000" stroke="#000" stroke-width="1.3" d="M197.9 261.2c-19.1 31-64.8 104.3-3.6 142.4 82.3 50.6 59 101-16 55.5-106-63.3-12.9-191.2 29.4-240 48.4-54.7 9.3 10-9.8 42Z"/><path fill="url(#devicon-linux-tux-32-k)" d="M383.2 322.4c0 34.6-33.2 79.5-90.3 79a79 79 0 0 1-83.8-79c0-34.7 39-62.8 87-62.8 48.2.2 87.1 28.1 87.1 62.8"/><path fill="url(#devicon-linux-tux-33-l)" d="M352.1 213.6c-.5 35.8-24 44.2-53.5 44.2s-51-5.3-53.5-44.2c0-24.4 24-38.6 53.5-38.6 29.5-.2 53.5 14 53.5 38.6"/><path fill="url(#devicon-linux-tux-34-m)" d="M173.7 268.7c19.3-29.4 60-74.4 7.7 6.3-42.5 66.5-15.8 109.2-2 121 39.7 35.4 38.2 59.2 6.9 40.5-67.1-40-53.2-107.2-12.6-167.8"/><path fill="url(#devicon-linux-tux-35-n)" d="M452.9 280.7c-16.7-34.5-69.9-121.8 2.5-20.3 66 91.9 19.7 155.8 11.5 162.1-8.3 6.3-36 19.1-28-3.1 8.3-22.3 49.2-64.4 14-138.7"/><path fill="url(#devicon-linux-tux-36-o)" stroke="#E68C3F" stroke-width="6.3" d="M159.1 552.2c-44-23.4-108 4.5-84.8-58.8 4.7-14.4-6.9-36 .6-50 8.9-17.1 28-13.4 39.4-24.8 11.2-11.8 18.3-32.3 39.3-29.1s34.8 28.7 49.4 60.2c10.8 22.4 49 54 46.4 79.3-3.1 38.5-47 45.8-90.3 23.2Z"/><path fill="url(#devicon-linux-tux-37-p)" d="M480 403.4c-6.7 12.6-34.6 32.9-53.3 27.6-18.9-5.1-27.5-33.9-23.8-55.7 3.5-24.4 23.8-25.8 49.4-13.6 27.5 13.6 35.8 25 27.7 41.7"/><path fill="url(#devicon-linux-tux-38-q)" stroke="#E68C3F" stroke-width="6.3" d="M464.7 541.4c32.3-39.2 104-31.1 55.7-84.8-10.3-11.6-7.1-36.4-19.7-47-14.8-13-31-2.4-46-9.1-15-7.3-30.7-21.3-49-11.4s-20.3 36-22 70.2c-1.7 24.6-24 65.7-12 88.4 17.2 35 62.3 30.3 93-6.3Z"/><path fill="url(#devicon-linux-tux-39-r)" d="M450.7 489c50-73.8 12.8-73.2.2-78.9-12.6-5.9-25.8-17.5-40.5-9.4-14.8 8.2-15.6 29.5-16 57.4-.5 20.1-17.3 53.8-7.2 72.4 12.2 21.9 41.7-9.8 63.5-41.5"/><path fill="url(#devicon-linux-tux-40-s)" d="M148.9 499.7c-74.8-48.4-39.8-65-28.5-72.7 13.5-9.8 13.7-28.7 30.5-27 16.7 1.9 26.5 22.5 37.7 48.1 8.3 18.3 37 42.7 34.9 63.8-2.8 24.7-42.3 8.4-74.6-12.2"/><path fill="#000" d="M475.7 402.8c-5.9 10.3-29.9 26.4-45.8 22-16.4-4-23.8-27-20.5-44.4 3-19.7 20.5-20.6 42.5-10.8 23.4 10.6 30.7 19.7 23.8 33.2"/><path fill="url(#devicon-linux-tux-41-t)" d="M459.6 397.1c-3.8 7.1-19.5 18.3-30.5 15.4s-16.6-18.9-14.8-30.9c1.6-13.6 13.4-14.4 28.3-7.7 16.2 7.5 21.3 13.8 17 23.2"/><path fill="url(#devicon-linux-tux-42-u)" stroke="#E68C3F" stroke-width="3.8" d="M256.1 140.4c7.9-7.3 27-29.5 63.2-6.3 6.7 4.3 12.2 4.7 25 10.2 25.7 10.6 13.5 36.2-14 44.9-11.8 3.7-22.4 18-43.7 16.7-18.3-1-23-13-34.2-19.5-19.9-11.2-22.8-26.4-12-34.4z"/><path stroke="#E68C3F" stroke-width="2.5" d="M344.7 161c-10.9.6-34.3 24-58.9 24s-39.3-22.8-43-22.8"/><path fill="url(#devicon-linux-tux-43-v)" d="M268.3 138.4c4-3.5 16.4-13.2 32.7-3.3l12.2 7c10.4 6.1 5.3 15-7.3 20.5-5.7 2.4-15.1 7.5-22.2 7-7.9-.7-13.2-5.8-18.3-9.2-9.7-6.3-9-11.6-4.6-15.7 3.4-3.1 7.1-6.1 7.5-6.3"/></g><defs><linearGradient id="devicon-linux-tux-24-c" x1="4025.5" x2="5317.3" y1="22994.8" y2="8512.1" gradientUnits="userSpaceOnUse"><stop stop-color="#FFEED7"/><stop offset="1" stop-color="#BDBFC2"/></linearGradient><linearGradient id="devicon-linux-tux-25-d" x1="7249.2" x2="6632.8" y1="242.2" y2="8918.3" gradientUnits="userSpaceOnUse"><stop stop-color="#fff" stop-opacity=".8"/><stop offset="1" stop-color="#fff" stop-opacity="0"/></linearGradient><linearGradient id="devicon-linux-tux-26-e" x1="2378" x2="1998.4" y1="5679.8" y2="720.1" gradientUnits="userSpaceOnUse"><stop stop-color="#FFEED7"/><stop offset="1" stop-color="#BDBFC2"/></linearGradient><linearGradient id="devicon-linux-tux-27-f" x1="3149.2" x2="3149" y1="6372" y2="1096.3" gradientUnits="userSpaceOnUse"><stop stop-color="#FFEED7"/><stop offset="1" stop-color="#BDBFC2"/></linearGradient><linearGradient id="devicon-linux-tux-28-g" x1="1139.6" x2="879.6" y1="174.6" y2="2197.4" gradientUnits="userSpaceOnUse"><stop stop-color="#fff" stop-opacity=".7"/><stop offset="1" stop-color="#fff" stop-opacity="0"/></linearGradient><linearGradient id="devicon-linux-tux-29-h" x1="779.9" x2="1059.8" y1="212" y2="1850.2" gradientUnits="userSpaceOnUse"><stop stop-color="#fff" stop-opacity=".7"/><stop offset="1" stop-color="#fff" stop-opacity="0"/></linearGradient><linearGradient id="devicon-linux-tux-30-i" x1="12304.4" x2="12304.4" y1="33114.5" y2="15057.7" gradientUnits="userSpaceOnUse"><stop stop-color="#FFEED7"/><stop offset="1" stop-color="#BDBFC2"/></linearGradient><linearGradient id="devicon-linux-tux-31-j" x1="5774.7" x2="1165.9" y1="22149.7" y2="6438" gradientUnits="userSpaceOnUse"><stop stop-color="#FFEED7"/><stop offset="1" stop-color="#BDBFC2"/></linearGradient><linearGradient id="devicon-linux-tux-32-k" x1="8888.1" x2="8934.3" y1="2136.3" y2="13690.6" gradientUnits="userSpaceOnUse"><stop stop-color="#fff" stop-opacity=".8"/><stop offset="1" stop-color="#fff" stop-opacity="0"/></linearGradient><linearGradient id="devicon-linux-tux-33-l" x1="5589.2" x2="5640.4" y1="3267.1" y2="7861.3" gradientUnits="userSpaceOnUse"><stop stop-color="#fff" stop-opacity=".7"/><stop offset="1" stop-color="#fff" stop-opacity="0"/></linearGradient><linearGradient id="devicon-linux-tux-34-m" x1="3625.3" x2="3625.3" y1="720.6" y2="17580.3" gradientUnits="userSpaceOnUse"><stop stop-color="#fff" stop-opacity=".7"/><stop offset="1" stop-color="#fff" stop-opacity="0"/></linearGradient><linearGradient id="devicon-linux-tux-35-n" x1="4002.6" x2="3996.3" y1="710.6" y2="15944.1" gradientUnits="userSpaceOnUse"><stop stop-color="#fff" stop-opacity=".7"/><stop offset="1" stop-color="#fff" stop-opacity="0"/></linearGradient><linearGradient id="devicon-linux-tux-36-o" x1="9702.4" x2="7202.1" y1="8990" y2="17669.4" gradientUnits="userSpaceOnUse"><stop stop-color="#FFA63F"/><stop offset="1" stop-color="#FF0"/></linearGradient><linearGradient id="devicon-linux-tux-37-p" x1="4640.5" x2="4283.4" y1="11458.5" y2="-4664.2" gradientUnits="userSpaceOnUse"><stop stop-color="#FFEED7"/><stop offset="1" stop-color="#BDBFC2"/></linearGradient><linearGradient id="devicon-linux-tux-38-q" x1="5522.6" x2="12330.4" y1="6709" y2="16353.9" gradientUnits="userSpaceOnUse"><stop stop-color="#FFA63F"/><stop offset="1" stop-color="#FF0"/></linearGradient><linearGradient id="devicon-linux-tux-39-r" x1="5870.4" x2="3543.8" y1="-2009.6" y2="9380.1" gradientUnits="userSpaceOnUse"><stop stop-color="#fff" stop-opacity=".7"/><stop offset="1" stop-color="#fff" stop-opacity="0"/></linearGradient><linearGradient id="devicon-linux-tux-40-s" x1="5893.9" x2="6353.8" y1="594.6" y2="13373.4" gradientUnits="userSpaceOnUse"><stop stop-color="#fff" stop-opacity=".7"/><stop offset="1" stop-color="#fff" stop-opacity="0"/></linearGradient><linearGradient id="devicon-linux-tux-41-t" x1="2463" x2="3001.8" y1="565.4" y2="4389.3" gradientUnits="userSpaceOnUse"><stop stop-color="#fff" stop-opacity=".7"/><stop offset="1" stop-color="#fff" stop-opacity="0"/></linearGradient><linearGradient id="devicon-linux-tux-42-u" x1="6414.1" x2="6459" y1="1571.5" y2="8295.4" gradientUnits="userSpaceOnUse"><stop stop-color="#FFA63F"/><stop offset="1" stop-color="#FF0"/></linearGradient><linearGradient id="devicon-linux-tux-43-v" x1="3322.7" x2="3310.5" y1="243.3" y2="3798.7" gradientUnits="userSpaceOnUse"><stop stop-color="#fff" stop-opacity=".7"/><stop offset="1" stop-color="#fff" stop-opacity="0"/></linearGradient><clipPath id="devicon-linux-tux-22-a"><path fill="#fff" d="M0 0h600v600H0z"/></clipPath><filter id="devicon-linux-tux-23-b" width="529.7" height="161" x="35.1" y="452" color-interpolation-filters="sRGB" filterUnits="userSpaceOnUse"><feFlood flood-opacity="0" result="BackgroundImageFix"/><feBlend in="SourceGraphic" in2="BackgroundImageFix" result="shape"/><feGaussianBlur result="effect1_foregroundBlur_1_8396" stdDeviation="6.5"/></filter></defs></svg>